<?xml version="1.0" encoding="UTF-8" standalone="no"?>
<!DOCTYPE svg PUBLIC "-//W3C//DTD SVG 1.1//EN" "http://www.w3.org/Graphics/SVG/1.1/DTD/svg11.dtd">
<svg width="100%" height="100%" viewBox="0 0 16 20" version="1.1" xmlns="http://www.w3.org/2000/svg" xmlns:xlink="http://www.w3.org/1999/xlink" xml:space="preserve" xmlns:serif="http://www.serif.com/" style="fill-rule:evenodd;clip-rule:evenodd;stroke-linejoin:round;stroke-miterlimit:2;">
    <g transform="matrix(1,0,0,1,-2,-0.0420452)">
        <path d="M17,10L6,10L6,6C6,3.7 8,1.8 10.4,2C12.5,2.2 14,4.1 14,6.2L14,7.6C14,7.8 14.2,8 14.4,8L15.6,8C15.8,8 16,7.8 16,7.6L16,6C16,2.4 12.9,-0.4 9.2,0.1C6.2,0.4 4,3.2 4,6.2L4,10L3,10C2.4,10 2,10.4 2,11L2,19C2,19.6 2.4,20 3,20L17,20C17.6,20 18,19.6 18,19L18,11C18,10.4 17.6,10 17,10Z" style="fill:white;fill-rule:nonzero;"/>
    </g>
</svg>
