<svg width="100%" height="100%" viewBox="0 0 75 91" version="1.1" xmlns="http://www.w3.org/2000/svg" xmlns:xlink="http://www.w3.org/1999/xlink" xml:space="preserve" xmlns:serif="http://www.serif.com/" style="fill-rule:evenodd;clip-rule:evenodd;stroke-linejoin:round;stroke-miterlimit:2;">
    <g transform="matrix(1,0,0,1,-12.6,-5.03618)">
        <path d="M87.4,8C87.4,7 86.9,6.1 86.2,5.6C85.4,5 84.4,4.9 83.5,5.2L38.6,20.2C37.4,20.6 36.6,21.8 36.6,23L36.6,68.1C34.1,66.2 31,65.1 27.6,65.1C19.3,65.1 12.6,71.8 12.6,80.1C12.6,88.4 19.3,95.1 27.6,95.1C35.6,95.1 42.2,88.7 42.5,80.7L42.5,38.5L81.4,25.5L81.4,54.6C78.9,52.7 75.8,51.6 72.4,51.6C64.1,51.6 57.4,58.3 57.4,66.6C57.4,74.9 64.1,81.6 72.4,81.6C80.4,81.6 87,75.2 87.3,67.2L87.3,8L87.4,8Z" style="fill:white;fill-rule:nonzero;"/>
    </g>
</svg>
